<svg version="1.1" id="Layer_1" xmlns="http://www.w3.org/2000/svg" xmlns:xlink="http://www.w3.org/1999/xlink" x="0px" y="0px"
	 width="100%" viewBox="0 0 704 704" enable-background="new 0 0 704 704" xml:space="preserve">
<path fill="#000000" opacity="1.000000" stroke="none" 
	d="
M464.116974,435.923737 
	C484.819763,429.787598 505.538300,425.951965 526.698914,424.725311 
	C533.279602,424.343872 533.301453,424.591766 533.316589,431.221771 
	C533.328369,436.387543 533.176819,441.558624 533.367493,446.717377 
	C533.495056,450.170074 532.136169,451.223938 528.732605,451.454193 
	C478.183167,454.873322 432.885773,472.560150 392.011353,502.127075 
	C390.959961,502.887604 390.009216,503.787201 387.803528,505.632568 
	C424.158905,509.531647 458.182800,517.806030 490.524323,532.834351 
	C445.814667,526.453491 400.955719,521.547546 355.820496,521.541992 
	C310.437714,521.536438 265.322632,526.142883 220.322662,532.900574 
	C230.261993,526.797668 241.236465,523.528931 252.063446,519.930908 
	C263.284302,516.202026 274.785980,513.525818 286.351410,511.109558 
	C297.694122,508.739899 309.195496,507.302368 321.194550,505.780121 
	C319.899292,502.800537 317.750275,501.739044 315.946960,500.447632 
	C281.798004,475.992706 244.091370,460.093262 202.528259,453.627106 
	C195.639343,452.555389 188.666138,451.899414 181.706070,451.465393 
	C178.333130,451.255096 176.910873,450.224335 177.023987,446.736267 
	C177.207489,441.076721 177.197754,435.402161 177.012589,429.742340 
	C176.885315,425.851898 178.388153,424.396362 182.309509,424.637268 
	C202.801895,425.896362 222.923019,429.244720 242.643326,434.968231 
	C282.244904,446.461884 317.772125,465.529816 349.273865,492.153687 
	C356.470428,498.235931 354.540588,497.499268 360.936096,492.145416 
	C391.474121,466.580902 425.590942,447.643311 464.116974,435.923737 
z"/>
<path fill="#000000" opacity="1.000000" stroke="none" 
	d="
M516.000000,334.355225 
	C516.162476,353.646698 516.210144,372.473450 516.399170,391.298767 
	C516.433044,394.672394 515.125916,396.016205 511.800201,396.322723 
	C501.859467,397.238861 501.959808,397.332855 501.938141,387.256775 
	C501.899109,369.097076 502.693481,350.870575 501.423645,332.792511 
	C498.995331,298.221893 486.830261,266.986023 465.420868,239.637619 
	C437.858337,204.429260 401.536987,183.482193 357.948456,174.638107 
	C352.936157,173.621124 348.311768,175.435165 343.751831,176.658173 
	C272.796509,195.688797 228.410797,240.784332 211.647614,312.470703 
	C208.421616,326.266449 208.006653,340.470459 208.258850,354.662415 
	C208.474930,366.822113 208.185730,378.990509 208.372452,391.151154 
	C208.438461,395.450378 207.800705,398.106354 202.620850,396.512787 
	C201.385864,396.132874 199.973755,396.302612 198.641861,396.269012 
	C195.669388,396.193939 193.978943,394.944214 194.018005,391.720459 
	C194.270203,370.908051 192.966553,350.033752 194.924637,329.294556 
	C198.333206,293.192657 210.640106,260.313110 232.952454,231.502151 
	C261.664459,194.427628 299.382080,171.930206 344.965546,161.490662 
	C358.497559,158.391556 370.402496,162.551376 382.388641,166.228363 
	C434.990692,182.365036 473.556854,215.437317 497.849365,264.801849 
	C507.929932,285.286407 513.672241,307.111969 515.372253,329.940796 
	C515.470825,331.263794 515.742493,332.573883 516.000000,334.355225 
z"/>
<path fill="#000000" opacity="1.000000" stroke="none" 
	d="
M383.387787,350.691132 
	C388.600708,353.632233 393.662292,356.909943 399.624115,358.222198 
	C401.551178,358.646362 403.790741,359.436615 405.233093,357.652466 
	C406.497162,356.088867 405.623566,354.070648 404.784882,352.448486 
	C401.883362,346.836395 398.565552,341.419952 395.966431,335.675568 
	C391.822540,326.517151 390.723145,316.864410 392.645844,306.930145 
	C393.207703,304.027130 394.672363,301.734528 397.151428,299.744049 
	C399.025604,301.512390 398.342865,303.611603 398.310425,305.423004 
	C398.148193,314.482849 400.211060,322.965759 405.082397,330.592499 
	C409.997650,338.287964 413.677460,346.369110 414.254639,355.592773 
	C414.424377,358.305237 415.746185,358.991608 418.169647,358.688904 
	C422.558411,358.140747 426.453247,356.267609 430.265198,354.220184 
	C435.478668,351.419952 440.904816,349.608765 446.910461,349.575684 
	C449.229492,349.562897 452.533813,350.150848 452.490845,346.365448 
	C452.454987,343.206848 450.313629,341.209106 447.215302,340.560394 
	C444.307922,339.951660 441.646820,341.194702 438.956604,342.018829 
	C434.826630,343.283997 430.821381,345.085114 426.445526,345.322723 
	C423.008118,345.509338 419.242523,346.237732 417.233643,342.189789 
	C415.502869,338.702332 416.830414,332.467499 420.125732,329.217133 
	C421.814575,330.786163 421.754333,334.125122 424.740509,334.378510 
	C427.343414,334.599396 429.610321,333.412018 431.903412,332.485443 
	C437.403473,330.262939 443.078735,329.428345 449.000153,329.650452 
	C456.770355,329.941895 460.324127,332.958008 461.198547,340.605591 
	C461.862549,346.412872 460.290466,351.816528 457.929413,357.055084 
	C456.687073,359.811584 454.384735,360.434723 451.736755,360.151642 
	C441.868530,359.096741 434.294861,364.372223 425.023468,369.600311 
	C434.369263,371.987610 440.654877,376.853943 445.749573,383.799927 
	C445.998718,383.989655 445.974884,383.956451 445.974884,383.956451 
	C448.169037,391.807678 450.777405,399.565735 447.188812,407.796936 
	C444.631531,413.662720 443.606445,414.253235 437.980011,410.963196 
	C432.287659,407.634491 427.456512,403.402557 424.327576,397.411011 
	C423.527222,395.878418 423.172943,393.895264 421.101959,392.955750 
	C418.801941,394.497009 418.803741,397.255127 417.896088,399.447845 
	C412.545685,412.374084 406.756897,414.362396 394.791443,407.069824 
	C392.121704,405.442719 389.671112,403.456055 386.810638,401.414398 
	C383.229156,405.068604 379.524567,408.362549 375.134735,410.786713 
	C373.341309,411.777069 373.799225,413.500977 374.015656,415.232300 
	C375.127686,424.127045 373.358307,432.356445 367.771088,440.539307 
	C362.898682,434.730865 356.358215,433.157104 349.808685,431.318604 
	C344.803040,429.913483 340.392975,429.494171 335.110962,431.136780 
	C324.218994,434.523895 313.076721,426.950195 310.760498,415.673737 
	C308.827576,406.263519 308.827576,406.263519 300.285675,410.958221 
	C285.140594,419.282135 266.614105,416.071594 255.814972,403.195221 
	C254.569580,401.710236 252.996246,400.335754 252.826294,397.903259 
	C254.900436,397.147919 256.252014,398.663269 257.729065,399.428619 
	C272.371552,407.015808 286.752014,407.043030 300.811005,397.982483 
	C305.553741,394.925873 310.877625,393.690765 316.313324,392.749542 
	C318.806732,392.317810 322.161133,393.008118 321.747772,388.759308 
	C321.436584,385.560822 317.841217,383.135071 314.276917,383.979797 
	C311.055420,384.743256 307.971313,386.072937 304.803528,387.080444 
	C301.797089,388.036682 298.770508,388.933502 295.735138,389.794281 
	C291.585663,390.970947 288.097351,390.239777 286.025543,386.060547 
	C283.926514,381.826263 285.164185,376.928467 289.017487,373.834839 
	C292.891815,379.879608 292.937256,379.872528 300.048004,376.961792 
	C306.393982,374.364136 312.803009,372.056915 319.862244,372.682465 
	C325.707703,373.200470 329.621429,376.518494 330.179810,382.342407 
	C330.605530,386.783020 330.687683,391.278931 329.538788,395.746490 
	C328.396362,400.188812 326.771729,403.481812 321.304474,403.188599 
	C318.275360,403.026154 316.676971,404.753448 317.457611,408.038208 
	C318.804932,413.707489 325.638031,419.334839 332.246613,419.929474 
	C331.529938,415.162811 329.600372,410.761871 329.524353,405.872040 
	C329.385834,396.959473 333.608246,389.912903 338.058594,382.865997 
	C339.826019,380.067444 341.783997,380.845398 343.676422,382.978912 
	C345.457825,384.987244 346.349182,388.201294 350.363495,387.212677 
	C348.655609,393.561554 351.683105,396.626831 356.475525,398.652588 
	C364.843384,402.189514 373.002472,402.514954 381.819275,397.204681 
	C374.755188,391.302704 367.178131,388.666016 359.129486,387.403717 
	C355.117828,386.774567 353.209961,385.031647 353.118805,381.002045 
	C353.026520,376.924225 354.738983,374.903229 358.941956,374.640533 
	C370.482452,373.919037 380.415497,368.089783 391.783997,364.462891 
	C388.749481,359.889587 384.545502,356.822205 382.922180,351.572906 
	C383.144623,350.931885 383.266205,350.811523 383.387787,350.691132 
M406.549561,371.386658 
	C404.264984,368.531433 400.793762,368.572296 397.050964,367.163910 
	C397.860931,373.899597 397.207581,379.959900 395.072693,385.738068 
	C393.872375,388.986725 393.266510,391.555359 396.960449,393.749969 
	C402.162048,396.840332 407.950623,397.897278 410.339386,394.970581 
	C416.073975,387.944550 418.624664,379.424286 421.408295,370.885437 
	C415.700836,369.329895 412.670288,370.814117 411.626495,376.091003 
	C411.149872,378.500763 410.141998,380.845825 409.089569,383.086151 
	C408.454620,384.437775 407.656342,386.143646 405.226166,385.520874 
	C405.328217,380.940125 407.337372,376.676270 406.549561,371.386658 
M340.199646,396.645844 
	C335.982727,392.573730 335.953461,397.295471 335.522400,399.220520 
	C334.476715,403.890411 339.583740,411.872864 344.829041,413.972870 
	C346.200012,407.558258 343.338715,402.381256 340.199646,396.645844 
M363.895477,421.773712 
	C367.370819,419.958984 364.689209,418.317230 363.445160,417.345886 
	C360.056671,414.700043 356.251282,412.708679 352.051453,411.704468 
	C349.261230,417.079773 349.668274,418.183411 354.954956,419.690430 
	C357.671295,420.464783 360.429352,421.092957 363.895477,421.773712 
M385.177246,384.248779 
	C386.554382,384.936127 388.139374,386.613464 389.258850,384.243469 
	C390.323395,381.989746 389.984283,379.221924 387.836761,378.075806 
	C384.904236,376.510712 382.370422,377.985626 380.649078,380.626312 
	C381.572632,382.541931 383.273926,382.966919 385.177246,384.248779 
M436.144745,390.300293 
	C434.338440,388.745850 432.532135,387.191376 430.725830,385.636932 
	C432.012085,389.739105 433.723480,393.340851 437.967896,395.014771 
	C438.563599,393.024841 437.243805,392.029205 436.144745,390.300293 
z"/>
<path fill="#000000" opacity="1.000000" stroke="none" 
	d="
M229.414337,337.183472 
	C229.392502,356.941925 229.388107,376.255829 229.353836,395.569641 
	C229.349670,397.916443 229.502197,400.777863 225.929047,400.207245 
	C222.953659,399.732117 218.553528,400.607056 218.697388,395.467102 
	C219.404678,370.197906 216.519043,344.813477 220.593414,319.660278 
	C227.447739,277.345062 247.949173,242.953522 281.606537,216.464722 
	C302.289215,200.187195 325.921906,190.313644 351.569092,185.004593 
	C354.206848,184.458588 356.827637,184.610733 359.491669,185.145370 
	C392.240967,191.717789 420.721008,206.572510 444.311493,230.135162 
	C468.034485,253.830170 482.972473,282.443512 489.250183,315.455933 
	C494.272034,341.864227 491.748535,368.573975 492.264130,395.159912 
	C492.377899,401.025513 487.220978,399.522797 484.130524,400.073853 
	C480.604004,400.702606 480.992584,397.376221 480.976654,395.177887 
	C480.845367,377.019470 481.169739,358.849945 480.651459,340.703857 
	C479.623779,304.722656 466.821655,273.139191 443.328033,246.024612 
	C421.243774,220.536636 393.316956,204.643097 360.570221,196.857269 
	C355.355286,195.617386 350.563751,196.576477 345.850342,197.883774 
	C289.191010,213.598541 252.007751,249.380417 234.937042,305.854309 
	C231.881409,315.963043 230.888214,326.378601 229.414337,337.183472 
z"/>
<path fill="#000000" opacity="1.000000" stroke="none" 
	d="
M353.120056,303.916565 
	C349.533569,300.014862 344.468018,298.937164 340.272430,296.292328 
	C333.757172,292.185211 328.195343,287.447205 326.136200,279.601501 
	C324.195496,272.207245 326.477295,262.937164 331.349884,259.066010 
	C332.835510,259.950470 332.350464,261.443970 332.216003,262.626129 
	C331.088226,272.542175 335.984253,279.154602 343.905975,284.073120 
	C349.165436,287.338654 354.934265,289.538788 360.693268,291.742767 
	C362.570770,292.461334 364.365509,292.374542 365.859497,291.073395 
	C367.535309,289.613892 367.070984,287.649445 366.314087,285.978699 
	C365.218964,283.561340 363.969849,281.182709 362.517426,278.963623 
	C356.032471,269.055695 354.080475,258.069275 354.899384,246.511688 
	C355.188934,242.424820 356.181976,238.339615 360.593079,235.576355 
	C362.331116,241.117645 360.814117,246.451569 362.060303,251.611404 
	C363.449677,257.363953 365.229828,262.820831 368.518982,267.703430 
	C374.359894,276.373840 375.559875,285.870422 373.646515,295.883209 
	C373.186371,298.291260 373.933411,299.963837 375.173798,301.867981 
	C381.747223,311.958984 381.187439,328.010925 374.028900,337.734375 
	C373.573822,338.352478 373.229614,339.257294 372.130341,339.109558 
	C370.955475,338.105896 371.761383,336.993256 372.020508,335.948212 
	C373.883759,328.434052 371.704407,322.998535 365.167694,318.942139 
	C356.296783,313.437195 347.383911,314.426086 339.676422,321.770294 
	C334.207642,326.981293 327.656494,326.403900 322.950134,320.312408 
	C321.151978,317.985016 320.067474,315.045624 317.016022,313.358765 
	C314.713257,315.548340 313.676849,317.161133 317.355438,319.275452 
	C328.955505,325.942719 334.023834,344.058746 327.957245,356.067047 
	C326.340820,359.266602 324.509277,360.352356 320.826935,358.901764 
	C314.110138,356.255890 309.134521,352.020294 306.165009,345.431580 
	C305.560150,344.089539 304.838531,342.800171 304.196503,341.537262 
	C302.151459,341.648712 302.135620,343.300934 301.508942,344.333069 
	C300.648224,345.750793 300.184601,347.452393 299.165680,348.723663 
	C295.335968,353.502014 291.843811,359.170807 284.491547,358.278778 
	C277.858307,357.474030 276.294586,351.581512 274.143738,346.634338 
	C271.749084,341.126434 270.647705,335.213898 269.620880,329.309814 
	C269.170258,326.718597 268.893677,324.047607 267.196289,321.897034 
	C257.624542,323.613373 253.200912,332.730835 257.836700,340.901428 
	C261.941345,348.135773 268.462280,353.232513 273.981384,359.212341 
	C278.531525,364.142365 282.923798,369.083832 283.944397,376.124634 
	C284.496094,379.930634 283.919342,383.341095 281.629211,386.825073 
	C278.319672,384.254578 280.271881,379.463989 276.498535,376.913055 
	C272.663757,383.138123 269.008240,389.821075 260.441376,391.059814 
	C260.169800,388.243286 262.597015,387.689697 263.714813,386.128174 
	C263.160614,384.162384 260.764709,386.363007 260.009583,384.197296 
	C260.886871,381.443268 262.722778,378.930145 265.263275,376.987854 
	C267.829681,375.025726 271.546906,376.342163 274.325439,374.157349 
	C273.914368,370.169678 270.614502,368.754700 268.065643,366.852356 
	C259.573669,360.514557 252.845612,352.973816 250.192184,342.364349 
	C246.023773,325.697266 253.391342,311.441742 268.812836,306.535400 
	C273.612274,305.008484 274.035217,305.473785 274.414185,310.620056 
	C275.169403,320.875305 275.187592,331.344635 282.365295,339.915009 
	C287.550903,346.106750 290.773438,346.317322 295.168365,339.730621 
	C301.823395,329.756622 307.338318,319.179596 310.462341,307.479553 
	C311.142578,304.931915 309.882660,303.351898 308.514832,301.659180 
	C302.756409,294.532898 297.109070,287.312897 291.207916,280.306763 
	C280.518311,267.615570 284.543915,256.176727 295.902557,247.208908 
	C303.327026,241.347183 312.199615,238.107178 321.007629,235.109238 
	C337.022003,229.658493 352.552246,223.401733 365.917419,212.705856 
	C366.395905,212.322937 367.064056,212.176987 368.228851,211.661926 
	C369.017975,217.124786 366.354401,220.501099 362.809143,223.275940 
	C352.223022,231.561554 340.475861,237.754623 327.793091,242.179337 
	C316.763031,246.027451 306.187897,250.865891 295.804169,256.219116 
	C291.465149,258.456055 291.196899,260.860199 293.740204,264.419220 
	C295.288818,266.586304 296.634644,268.921570 298.357361,270.937012 
	C308.856842,283.220367 319.048492,295.743927 328.876465,308.576324 
	C334.418457,315.812469 336.970398,315.894379 343.656433,309.654144 
	C346.425720,307.069519 350.203705,306.488190 353.120056,303.916565 
M319.874603,337.711853 
	C317.932983,334.693176 315.799194,331.929840 311.312622,330.954956 
	C313.045807,337.196167 315.599304,341.743500 320.963074,344.710724 
	C322.271332,341.804504 320.935944,340.128052 319.874603,337.711853 
z"/>
<path fill="#000000" opacity="1.000000" stroke="none" 
	d="
M483.410278,408.232544 
	C492.665344,406.651459 501.519165,405.195160 510.378754,403.774902 
	C514.323303,403.142609 516.783936,403.979218 516.436584,408.876190 
	C515.886475,416.631561 518.188599,417.235596 507.489471,418.654846 
	C451.862549,426.033752 402.747253,448.352936 359.907684,484.436401 
	C355.787628,487.906708 353.491760,487.230377 349.904755,484.170197 
	C315.463562,454.788055 276.167694,434.818207 232.205170,424.047546 
	C221.533081,421.432922 210.718033,419.574921 199.809052,418.230408 
	C194.623489,417.591278 191.363297,408.858307 194.696243,404.723480 
	C196.086761,402.998352 198.124481,403.554718 199.836243,403.744965 
	C213.078094,405.216736 226.122055,407.788116 239.045853,411.013214 
	C280.046204,421.244781 317.130646,439.496826 350.274658,465.652161 
	C354.075256,468.651428 356.397522,468.470978 360.074310,465.585846 
	C396.573975,436.944672 437.534637,417.778748 483.410278,408.232544 
z"/>
<path fill="#000000" opacity="1.000000" stroke="none" 
	d="
M382.846802,351.238739 
	C380.469788,351.733368 379.226318,353.480560 377.978821,354.932922 
	C365.694061,369.235291 349.484161,371.709808 332.058502,370.026550 
	C322.829224,369.135010 313.805786,366.967560 304.873718,362.907593 
	C340.574707,368.617371 367.489380,353.625824 389.305237,326.957886 
	C394.352722,334.839539 394.257904,336.525940 389.247406,342.645996 
	C387.254761,345.079956 385.373322,347.604950 383.414490,350.389801 
	C383.266205,350.811523 383.144623,350.931885 382.846802,351.238739 
z"/>
<path fill="#000000" opacity="1.000000" stroke="none" 
	d="
M371.611359,225.862228 
	C372.597931,224.755936 373.101654,223.538956 374.839111,223.835800 
	C375.973846,227.967972 374.916412,232.296570 375.529663,236.509094 
	C376.704010,244.575958 380.133636,251.661148 384.454895,258.463837 
	C393.985321,273.466980 392.024048,289.159424 386.770660,304.916229 
	C386.148529,306.782227 385.337280,309.078308 382.396301,309.391296 
	C381.760529,305.605194 383.189331,302.111420 383.853851,298.685516 
	C386.155823,286.818573 383.059540,276.325592 376.747955,266.485199 
	C370.898834,257.365936 368.715729,247.314636 368.700439,236.625885 
	C368.695068,232.867218 369.389099,229.373169 371.611359,225.862228 
z"/>
<path fill="#000000" opacity="1.000000" stroke="none" 
	d="
M434.288330,289.210938 
	C442.804108,292.821320 444.986847,299.199890 440.598694,307.257721 
	C440.059265,307.036865 439.287872,306.967377 438.958130,306.549438 
	C433.088409,299.109558 429.183167,301.078674 423.153320,305.085938 
	C417.849426,308.610809 413.387390,313.100922 409.147064,317.822510 
	C407.835236,319.283173 406.730133,321.025238 404.709045,321.665405 
	C400.838531,317.129608 400.559814,313.518036 404.287354,309.489960 
	C409.032684,304.362000 413.893036,299.312622 419.030182,294.583984 
	C423.128448,290.811646 427.855347,287.953949 434.288330,289.210938 
z"/>
<path fill="#000000" opacity="1.000000" stroke="none" 
	d="
M264.755493,285.075073 
	C266.380096,283.015106 268.452118,281.555176 265.652710,279.017975 
	C258.692017,272.709259 259.787445,266.768280 268.689606,261.972321 
	C270.607605,263.215851 271.013000,265.933350 273.295380,266.930878 
	C278.623566,269.259613 278.860046,274.612488 274.672577,278.854614 
	C271.246490,282.325409 270.926971,284.612518 275.420868,287.217621 
	C278.945923,289.261078 279.156403,292.456940 277.226868,295.848419 
	C275.651520,298.617340 273.787476,301.127441 270.816101,302.531708 
	C259.757629,292.250519 259.736420,292.191895 264.755493,285.075073 
z"/>
<path fill="#000000" opacity="1.000000" stroke="none" 
	d="
M420.269165,268.356567 
	C422.758911,266.301086 424.953094,264.449585 427.147308,262.598083 
	C427.484039,262.913147 427.820770,263.228180 428.157501,263.543243 
	C426.613312,269.001160 422.694916,272.802643 418.143250,276.051788 
	C416.546234,277.191772 414.659882,278.034973 412.787750,278.661255 
	C406.257324,280.845856 400.207703,283.635406 396.666748,290.314331 
	C397.456482,284.538300 399.953278,279.985718 404.069580,276.281677 
	C409.599731,271.305420 410.286713,266.184967 406.316650,259.803558 
	C405.791016,258.958649 405.211578,258.136261 404.570923,257.375977 
	C402.740356,255.203659 399.972412,252.463608 403.191254,250.264633 
	C406.587189,247.944702 407.739044,252.287323 409.276276,254.263290 
	C411.572449,257.214783 412.231750,260.824402 412.537109,264.550476 
	C413.132050,271.809357 413.470184,271.930450 420.269165,268.356567 
z"/>
<path fill="#000000" opacity="1.000000" stroke="none" 
	d="
M348.008789,345.999146 
	C346.245880,346.879944 344.844543,347.945862 342.601868,346.801788 
	C345.938721,344.467590 342.286377,341.786591 343.285431,339.179321 
	C345.640320,333.033783 351.295166,330.475830 358.581085,332.598053 
	C357.485077,338.846497 353.250732,342.597717 348.008789,345.999146 
z"/>
<path fill="#000000" opacity="1.000000" stroke="none" 
	d="
M318.864502,260.528931 
	C315.396698,266.146606 311.330292,270.376190 304.828156,271.759644 
	C304.296967,269.340973 306.430756,268.482178 306.501434,266.741486 
	C305.613586,265.955841 303.572632,266.280701 304.438995,263.825348 
	C306.414337,258.226959 311.172577,255.599380 319.377838,256.155518 
	C320.694580,257.586212 319.416077,258.863037 318.864502,260.528931 
z"/>
<path fill="#000000" opacity="1.000000" stroke="none" 
	d="
M390.778625,246.887726 
	C388.506897,248.307678 386.601227,249.691986 383.760376,249.572021 
	C383.679077,246.222366 386.675873,245.577667 388.711456,243.891068 
	C386.825348,242.728226 385.166351,245.019409 383.529449,243.957550 
	C385.970276,235.526154 388.636169,233.581802 399.286194,234.718613 
	C398.165375,239.934647 395.131866,243.628525 390.778625,246.887726 
z"/>
<path fill="#000000" opacity="1.000000" stroke="none" 
	d="
M281.723541,310.977051 
	C283.103027,309.292938 284.072388,307.568604 285.544464,306.649048 
	C290.440765,303.590454 295.114532,300.335815 298.693329,295.531219 
	C299.174988,301.492615 296.039124,305.636749 291.893372,308.897675 
	C287.272278,312.532471 281.786530,315.161652 279.566528,321.342987 
	C278.207062,317.350342 280.283447,314.420990 281.723541,310.977051 
z"/>
<path fill="#000000" opacity="1.000000" stroke="none" 
	d="
M446.012573,384.004486 
	C444.315125,376.393005 447.442078,369.817505 450.411041,362.507874 
	C452.982666,367.855927 448.790497,371.959503 449.262451,376.246735 
	C450.771606,377.459229 451.439789,375.356049 452.602112,375.855713 
	C454.056732,382.365295 451.772247,385.604462 446.310974,384.129974 
	C445.974884,383.956451 445.998718,383.989655 446.012573,384.004486 
z"/>
<path fill="#000000" opacity="1.000000" stroke="none" 
	d="
M432.823608,325.562714 
	C433.282227,320.398987 431.516266,316.408600 428.479340,312.908630 
	C427.012695,311.218445 426.095764,309.268188 428.105682,307.753143 
	C430.535614,305.921448 431.587036,308.580292 432.642487,310.018616 
	C437.097473,316.089905 437.523407,323.229767 433.878662,328.273712 
	C432.393066,328.035767 432.947449,326.834961 432.823608,325.562714 
z"/>
<path fill="#000000" opacity="1.000000" stroke="none" 
	d="
M346.244568,250.876068 
	C348.467041,251.392181 348.455719,251.439087 348.058655,253.918488 
	C347.496948,257.425873 345.250183,260.619141 345.847412,264.334930 
	C347.743835,265.013550 347.801361,262.370728 349.544708,262.900055 
	C350.836029,264.288330 349.930328,265.862274 349.523621,267.389740 
	C348.948029,269.551636 348.061066,271.996674 345.510468,271.732086 
	C342.867584,271.458008 342.922791,268.793304 342.629822,266.615082 
	C341.877655,261.022949 345.010559,256.337830 346.244568,250.876068 
z"/>
</svg>