<svg version="1.1" id="Layer_1" xmlns="http://www.w3.org/2000/svg" xmlns:xlink="http://www.w3.org/1999/xlink" x="0px" y="0px"
	 width="100%" viewBox="0 0 560 560" enable-background="new 0 0 560 560" xml:space="preserve">
<path fill="#000000" opacity="1.000000" stroke="none" 
	d="
M312.001984,278.998779 
	C316.905121,282.493347 322.008331,285.577911 327.940247,287.053406 
	C329.910278,287.543427 331.935669,288.220490 333.581238,286.560913 
	C335.510742,284.615021 334.407562,282.395416 333.442627,280.533569 
	C330.841278,275.514160 327.779541,270.725403 325.319397,265.642334 
	C320.759705,256.221191 319.707458,246.240875 321.661316,235.989288 
	C322.218018,233.068268 323.552246,230.448563 326.716492,228.652481 
	C328.056122,233.639740 327.102936,238.302460 327.944824,242.864960 
	C329.115936,249.211639 331.179016,255.084457 334.603577,260.461700 
	C339.137543,267.580933 342.629364,275.082397 343.183716,283.599731 
	C343.455688,287.778595 345.666809,288.125458 348.903137,287.395050 
	C352.510223,286.580994 355.863739,285.123993 359.064758,283.319763 
	C364.224670,280.411469 369.654724,278.624878 375.659302,278.559418 
	C378.063995,278.533173 381.290100,278.573792 381.267517,275.094574 
	C381.243927,271.458954 378.489594,270.051910 375.113586,269.965057 
	C372.256653,269.891571 369.521088,270.547852 366.790527,271.389130 
	C363.145325,272.512268 359.471436,273.629547 355.731598,274.333496 
	C352.068787,275.022888 348.235382,275.215027 346.162689,271.077667 
	C344.420868,267.600769 345.874390,261.334503 349.197693,258.140961 
	C350.920197,259.845673 350.774841,263.563965 354.093353,263.517303 
	C356.625275,263.481781 358.891083,262.313080 361.174622,261.294403 
	C367.605774,258.425385 374.427399,258.240479 381.258209,258.792542 
	C385.013458,259.096039 387.709656,261.300385 389.047760,264.938263 
	C390.775482,269.635559 390.652130,274.341492 389.411926,279.158630 
	C387.065094,288.274200 386.462799,288.984711 377.149048,289.130463 
	C369.187622,289.255005 363.207458,293.844818 356.144592,298.082733 
	C363.634277,301.467804 369.942810,306.004028 374.776276,312.768616 
	C374.998413,312.987915 374.974457,312.952728 374.974457,312.952728 
	C377.181061,320.645966 379.562927,328.269073 376.357391,336.351898 
	C373.825134,342.737122 372.429626,343.423370 366.523865,339.734070 
	C360.952972,336.253998 356.044037,332.059113 353.144287,325.929657 
	C352.529388,324.629944 351.918854,323.190582 349.787598,322.580139 
	C347.964203,326.267975 346.300781,330.024475 344.301239,333.592651 
	C340.438171,340.486359 336.132416,341.825104 328.885925,338.739990 
	C324.255005,336.768402 320.205261,333.885284 316.135406,330.516907 
	C312.328247,333.903564 308.750122,337.356445 304.290558,339.664215 
	C302.271851,340.708923 302.851898,342.575500 303.057983,344.496429 
	C304.006836,353.340851 302.344604,361.584076 296.608765,369.610565 
	C290.468445,361.652863 281.155396,361.820679 273.222961,358.736694 
	C271.138794,357.926361 269.361908,358.659882 267.459961,359.378021 
	C254.408051,364.306427 241.876999,357.057983 239.433334,343.218842 
	C239.404358,343.054718 239.375839,342.890503 239.347855,342.726257 
	C238.038361,335.043304 237.699219,334.871429 231.169052,338.874268 
	C222.011215,344.487793 212.142899,345.834747 201.858627,343.229523 
	C192.778046,340.929199 185.985474,335.505615 181.955887,326.676514 
	C187.191406,328.665955 192.018539,331.470581 197.472855,332.664398 
	C208.137863,334.998779 218.416000,334.237701 227.716599,328.196106 
	C233.331268,324.548828 239.387299,322.653595 245.858566,321.648773 
	C248.299301,321.269775 251.433411,321.382263 250.669632,317.598572 
	C249.997849,314.270630 247.495148,312.372986 244.099884,312.796692 
	C241.503098,313.120758 238.996948,314.245819 236.477325,315.094269 
	C233.482086,316.102875 230.571548,317.408905 227.525803,318.212982 
	C219.203445,320.410187 217.734329,319.753845 213.248184,312.397644 
	C212.346451,313.600037 211.494232,314.736420 210.476700,316.093262 
	C207.549240,313.209045 209.099136,308.571655 205.461319,306.047424 
	C201.775238,312.463043 197.764954,318.528961 189.450623,320.208435 
	C189.161499,317.434296 191.463104,316.627258 192.339874,314.918060 
	C191.753830,313.491150 190.227585,314.946930 189.195007,313.759094 
	C190.541794,305.659546 196.702179,304.156647 204.053833,304.260864 
	C203.436935,299.673889 200.129883,298.037415 197.447540,296.099487 
	C191.137955,291.541046 185.742035,286.212189 182.109848,279.261841 
	C173.798386,263.357513 178.486023,244.936066 192.716568,237.462463 
	C196.363785,235.547028 199.250229,234.863235 202.747040,235.133072 
	C203.596710,242.142334 204.265701,249.211807 205.362228,256.214325 
	C206.233612,261.779114 209.052155,266.538757 212.863647,270.646118 
	C216.525620,274.592316 219.652969,274.818573 222.793945,270.412109 
	C228.084854,262.989563 232.254776,254.901291 236.177368,246.602829 
	C240.733017,236.965088 238.580688,229.934708 231.297760,222.904404 
	C226.544495,218.315979 222.716248,212.716507 218.781906,207.344177 
	C211.761353,197.757645 212.527206,188.485886 220.736664,179.852356 
	C226.287033,174.015289 233.411972,170.718750 240.682449,167.781021 
	C248.399414,164.662857 256.223236,161.799332 264.058014,158.984985 
	C273.863098,155.462875 282.913147,150.610275 291.189362,144.282730 
	C292.991547,142.904877 294.944489,141.724197 297.412048,140.058456 
	C297.890381,145.879211 295.507507,149.386551 291.874878,152.251251 
	C279.816284,161.760696 266.099243,168.090179 251.702011,173.105682 
	C242.553696,176.292648 233.801453,180.371323 225.346634,185.073196 
	C219.867706,188.120148 219.718445,188.840073 223.233932,194.260941 
	C228.242432,201.984009 234.924866,208.359406 240.582397,215.562775 
	C246.343155,222.897552 251.981064,230.331818 257.866821,237.564606 
	C263.779175,244.830139 266.006958,244.976334 272.609802,238.715378 
	C275.156799,236.300278 278.708405,235.438477 281.382690,232.990997 
	C279.899536,229.763748 276.806702,229.470444 274.446228,228.207977 
	C265.946716,223.662186 257.501648,218.877457 255.240875,208.535339 
	C253.617599,201.109512 254.211243,193.793457 259.955933,187.772751 
	C261.842712,188.958252 261.402954,190.447495 261.258331,191.627380 
	C260.006561,201.839294 265.308014,208.390778 273.360229,213.334442 
	C278.491608,216.484863 284.175995,218.488037 289.735779,220.735443 
	C291.594635,221.486832 293.444092,221.480820 294.929718,220.220871 
	C296.615143,218.791519 296.020325,216.779572 295.308533,215.112717 
	C294.332001,212.825775 293.231140,210.539200 291.829163,208.495560 
	C285.001373,198.542847 283.237579,187.344101 283.825958,175.659225 
	C284.033264,171.542252 285.086670,167.424194 289.556335,164.772797 
	C290.841797,167.264404 290.339630,169.753708 290.319214,172.100037 
	C290.246155,180.483002 292.171082,188.408173 296.780182,195.334824 
	C302.968231,204.634399 304.764465,214.555176 302.572968,225.331009 
	C302.076935,227.770020 303.301453,229.427597 304.478760,231.275543 
	C310.714081,241.062866 310.329895,256.319672 303.627655,265.885315 
	C302.927582,266.884521 302.463989,268.391815 300.429047,268.067535 
	C300.462158,267.450989 300.385742,266.805145 300.544769,266.223633 
	C302.902130,257.604614 300.999695,252.296173 293.917267,247.836105 
	C286.494263,243.161575 276.960297,243.461685 271.023682,248.556686 
	C261.272827,256.925201 257.097260,256.409363 249.534912,245.946838 
	C248.671448,244.752228 247.973724,243.357101 246.476990,242.759766 
	C243.526886,245.564407 243.584778,246.191132 246.977646,248.372330 
	C257.839172,255.355011 262.740753,272.427032 257.453796,284.142395 
	C255.551865,288.356812 253.116959,289.334747 248.777847,287.559540 
	C240.766541,284.281891 236.241486,278.005035 233.237137,270.437988 
	C231.137161,270.670654 231.141266,272.300446 230.512436,273.343597 
	C229.483414,275.050598 228.835159,277.042267 227.588715,278.552765 
	C223.894424,283.029724 220.379364,288.259369 213.476761,287.261932 
	C206.987244,286.324188 205.240250,280.633759 203.080750,275.614868 
	C200.764236,270.231049 199.601654,264.507843 198.711319,258.749939 
	C198.277542,255.944504 197.558319,253.304367 196.478287,250.794388 
	C186.174118,253.066559 182.032471,261.987427 187.143173,270.365112 
	C189.934402,274.940582 193.728470,278.697815 197.420334,282.563843 
	C204.019775,289.474640 211.780197,295.617523 213.283997,305.684448 
	C216.083099,305.682770 215.957306,302.940796 217.822266,302.803375 
	C222.322708,308.737701 222.302567,308.688812 229.877548,305.570099 
	C235.919357,303.082611 242.096069,301.155914 248.781509,301.729828 
	C254.541702,302.224335 258.393799,305.292664 259.072937,310.813965 
	C259.660034,315.586853 259.783600,320.449280 258.503876,325.212250 
	C257.381836,329.388275 255.726486,332.662811 250.420807,332.207367 
	C247.794647,331.981903 245.930649,333.286652 246.364914,336.479156 
	C247.118683,342.020721 254.412491,348.315216 260.806732,348.543030 
	C260.444183,343.595703 258.430664,338.967621 258.573822,333.945251 
	C258.814270,325.510101 262.641479,318.616119 267.009125,311.866089 
	C268.795624,309.105103 270.635986,309.782349 272.656006,311.850464 
	C274.518097,313.756927 275.363770,317.073975 278.982819,316.263733 
	C278.715454,323.512787 280.235504,325.741028 286.778717,328.238708 
	C295.617950,331.612823 303.778076,330.932434 310.389404,325.972015 
	C306.679138,322.038055 301.789154,320.406708 297.067780,318.669281 
	C293.974945,317.531097 290.677826,316.747681 287.405792,316.345642 
	C282.899536,315.791931 282.322235,312.868011 282.295441,309.271759 
	C282.267975,305.580902 284.035522,303.998535 287.715576,303.650177 
	C295.216675,302.940125 302.447998,301.051117 309.202240,297.585693 
	C312.764404,295.758087 316.576447,294.618500 321.125702,293.724121 
	C317.726196,288.973053 313.508850,285.521027 311.300964,280.164825 
	C311.513733,279.443634 311.751007,279.214142 312.001984,278.998779 
M335.992798,325.610809 
	C337.788727,325.483337 339.240601,324.564484 340.168274,323.161804 
	C344.861755,316.065063 347.631897,308.125153 350.560242,300.172882 
	C343.776001,298.459747 342.267731,299.234253 340.669220,305.012817 
	C339.612518,308.832672 338.943604,312.867798 334.051971,315.546234 
	C334.725555,310.566040 335.491364,306.689362 335.710236,302.782013 
	C335.927979,298.895050 332.949524,297.258942 326.468018,297.415466 
	C326.361481,302.686096 326.226410,307.932404 324.578705,313.099426 
	C322.169922,320.653107 323.235687,322.375519 330.827911,324.990784 
	C332.204865,325.465118 333.750977,325.448364 335.992798,325.610809 
M265.512970,333.908691 
	C267.347534,337.736420 269.301910,341.454376 274.242035,343.610931 
	C275.059052,337.804535 273.094086,333.312500 271.054962,328.891846 
	C270.192200,327.021423 269.305817,324.180695 266.748535,324.899323 
	C264.174072,325.622772 264.167297,328.452637 264.484161,330.845947 
	C264.590607,331.649780 264.979858,332.416168 265.512970,333.908691 
M293.275726,350.502502 
	C295.205292,348.133270 293.258209,346.760437 291.720459,345.763123 
	C288.451416,343.642944 285.069733,341.617279 281.197968,340.879242 
	C277.944824,346.384338 278.089447,346.946960 283.558624,348.534027 
	C286.543030,349.400055 289.607971,349.988647 293.275726,350.502502 
M250.679047,271.287506 
	C249.168930,266.596436 246.883957,262.602600 241.651627,260.276764 
	C241.665466,265.406189 245.636230,271.825531 248.981705,273.035706 
	C249.950806,273.386230 250.528137,272.924927 250.679047,271.287506 
M318.615417,312.032227 
	C318.487885,309.645599 318.288666,306.980194 315.476685,306.493805 
	C313.156433,306.092499 310.929596,307.088135 309.672760,310.168823 
	C312.753418,310.864105 313.882477,316.635132 318.615417,312.032227 
M365.974030,323.972351 
	C366.612366,324.420563 367.150330,325.193512 368.243835,324.571625 
	C366.717377,320.657837 364.286255,317.641663 359.899170,315.446503 
	C360.795837,319.418823 363.157257,321.493317 365.974030,323.972351 
z"/>
<path fill="#000000" opacity="1.000000" stroke="none" 
	d="
M284.951172,450.409607 
	C258.394867,451.418823 232.305954,452.012787 206.326080,455.053345 
	C188.663742,457.120453 171.025970,459.250641 153.481415,462.150482 
	C152.085449,462.381195 150.537582,462.825043 148.509705,461.110291 
	C181.132248,446.631256 214.986435,438.739532 250.436783,434.762726 
	C248.960785,431.777222 246.754761,430.808258 244.967499,429.514618 
	C212.749054,406.195007 177.052231,390.894318 137.958237,383.699951 
	C128.989990,382.049561 119.848503,381.192047 110.746666,380.486725 
	C106.946457,380.192291 105.880280,378.796753 105.996719,375.301605 
	C106.179741,369.807953 106.168076,364.301880 106.037720,358.805817 
	C105.948555,355.046478 107.241745,353.387848 111.284134,353.630981 
	C129.600327,354.732605 147.611954,357.554260 165.358948,362.252380 
	C208.111221,373.569977 246.203308,393.720459 279.741516,422.475464 
	C282.966278,425.240295 285.052216,425.493805 288.465790,422.562134 
	C325.307281,390.921143 367.414825,369.695984 414.922424,359.347870 
	C428.746185,356.336761 442.718506,354.401764 456.859619,353.638336 
	C460.819183,353.424561 462.677826,354.516113 462.438385,358.873749 
	C462.118866,364.689545 462.286194,370.535675 462.352844,376.367523 
	C462.383057,379.009125 461.449860,380.223267 458.622375,380.400970 
	C424.634735,382.537476 392.422211,391.332855 361.894470,406.389008 
	C346.909973,413.779327 332.800018,422.591583 319.320587,432.435913 
	C318.831482,432.793060 318.483429,433.343323 317.244354,434.721497 
	C353.233398,438.519257 387.218506,446.742584 419.447510,461.855713 
	C374.958099,455.435272 330.330139,451.256287 284.951172,450.409607 
z"/>
<path fill="#000000" opacity="1.000000" stroke="none" 
	d="
M123.218597,268.456116 
	C124.351288,239.951508 131.091003,213.301483 144.231522,188.548462 
	C171.420334,137.332489 213.726868,105.758926 269.839355,91.367203 
	C287.081635,86.944901 302.221008,91.856422 317.333466,97.165863 
	C378.202667,118.550987 418.342133,160.436890 437.582153,222.057343 
	C442.707428,238.472137 445.102417,255.445297 445.279846,272.659821 
	C445.439575,288.156372 445.168610,303.658478 445.437042,319.152069 
	C445.517670,323.804688 443.804626,325.224915 439.416290,325.395325 
	C430.900879,325.725952 430.930817,325.918793 430.908447,317.409241 
	C430.866455,301.412079 431.177765,285.402679 430.663666,269.420197 
	C429.250458,225.488205 413.259735,187.457001 383.062592,155.563217 
	C356.916077,127.947647 324.706848,111.284981 287.551605,103.858009 
	C285.210724,103.390099 282.986725,103.326126 280.646851,103.803185 
	C238.306931,112.435356 202.771988,132.649872 175.602829,166.489502 
	C156.144012,190.725769 144.002274,218.379883 139.317581,249.231461 
	C135.793732,272.438080 138.004715,295.786926 137.210938,319.058289 
	C137.128754,321.467957 139.463348,325.798218 134.216827,325.908051 
	C124.358292,326.114471 122.990456,325.102325 122.995811,318.399841 
	C123.008995,301.905060 123.080811,285.410370 123.218597,268.456116 
z"/>
<path fill="#000000" opacity="1.000000" stroke="none" 
	d="
M214.000244,142.944092 
	C234.141830,128.299484 256.274353,119.041306 280.215363,114.061554 
	C288.219604,112.396660 295.778107,115.580879 303.151947,117.823868 
	C347.514343,131.318115 381.078186,158.317734 402.765472,199.462250 
	C414.343872,221.428482 420.500031,245.042694 421.170624,269.875488 
	C421.646942,287.515839 421.339050,305.177917 421.334198,322.830292 
	C421.332977,327.235077 415.356079,331.044708 411.586029,329.034271 
	C409.156067,327.738464 409.932892,325.232727 409.919617,323.181030 
	C409.804169,305.350006 410.109924,287.509277 409.632324,269.689056 
	C408.756805,237.020981 397.989166,207.663452 377.997284,181.929214 
	C355.524750,153.001709 326.119537,134.642944 290.481873,126.029480 
	C282.437134,124.085106 275.176758,126.387230 268.022308,128.752792 
	C207.700485,148.697617 171.451614,189.939896 160.398438,252.571976 
	C156.360504,275.452759 158.948883,298.751129 158.373215,321.855133 
	C158.352478,322.687622 158.432373,323.524048 158.386292,324.354248 
	C158.253815,326.741302 158.992859,329.901764 154.904617,329.384918 
	C151.617203,328.969299 147.469223,329.534943 147.603500,324.117798 
	C148.185364,300.646545 146.125259,277.105255 148.737122,253.703171 
	C151.224854,231.413345 158.636108,210.648239 170.052048,191.311508 
	C181.304520,172.251678 195.983780,156.331055 214.000244,142.944092 
z"/>
<path fill="#000000" opacity="1.000000" stroke="none" 
	d="
M272.042297,388.908630 
	C273.271027,389.808990 274.218628,390.488434 275.146912,391.193359 
	C284.494415,398.291077 284.348053,398.101013 293.526001,391.118164 
	C321.765656,369.632477 352.939789,353.864349 386.920105,343.601898 
	C403.837769,338.492554 421.098328,335.091736 438.602844,332.911530 
	C441.151154,332.594147 444.829865,331.048126 445.337097,336.134399 
	C446.185974,344.646637 445.475159,346.543579 440.120758,347.183258 
	C397.275604,352.301910 357.734711,366.698761 321.258118,389.607269 
	C309.828033,396.785736 298.821747,404.608826 288.757294,413.630951 
	C285.408691,416.632812 283.077209,416.759155 279.518372,413.697052 
	C253.507462,391.316498 224.255219,374.361176 192.104568,362.409454 
	C171.745773,354.841217 150.711411,350.046906 129.185715,347.320709 
	C126.920441,347.033813 123.937386,347.343353 123.361069,344.548615 
	C122.634491,341.025177 121.833633,336.991577 123.848351,333.844452 
	C125.429260,331.374878 128.776688,332.600494 131.316086,332.949646 
	C145.159058,334.853058 158.855042,337.521179 172.376434,341.082245 
	C208.546844,350.608276 241.544815,366.737640 272.042297,388.908630 
z"/>
<path fill="#000000" opacity="1.000000" stroke="none" 
	d="
M312.202057,278.733948 
	C311.751007,279.214142 311.513733,279.443634 311.127808,279.875366 
	C301.912109,290.042816 291.673950,298.025330 277.609070,299.187286 
	C265.714844,300.169861 254.022171,298.809540 242.597458,295.399109 
	C239.662842,294.523071 236.489822,294.186066 233.603638,291.584442 
	C269.440674,297.719421 296.382538,282.723206 318.230133,255.958878 
	C323.370392,264.105255 323.337341,265.607544 318.290710,271.673035 
	C316.373932,273.976746 314.367615,276.205963 312.202057,278.733948 
z"/>
<path fill="#000000" opacity="1.000000" stroke="none" 
	d="
M312.405273,185.637817 
	C322.595123,202.142471 322.235901,231.007141 311.480408,238.606827 
	C310.659058,234.057770 312.518860,230.050568 313.065887,226.009506 
	C314.419464,216.010498 312.690155,206.789932 307.287262,198.372086 
	C300.621338,187.986389 297.219360,176.775146 297.738403,164.415924 
	C297.932495,159.794388 299.107330,155.613281 304.180237,151.572128 
	C303.863495,164.205917 305.298645,175.532974 312.405273,185.637817 
z"/>
<path fill="#000000" opacity="1.000000" stroke="none" 
	d="
M330.782837,242.362869 
	C337.053711,233.446869 344.247925,225.834137 353.068390,220.049866 
	C358.560913,216.447983 364.357330,217.149323 368.332855,220.851425 
	C371.869843,224.145111 372.808136,229.515717 370.699127,234.694855 
	C370.468964,235.260040 369.960907,235.712051 369.633118,236.148193 
	C369.092041,236.037521 368.684357,236.076492 368.465851,235.891724 
	C360.470093,229.130524 358.343292,229.220810 349.769257,235.819031 
	C343.968445,240.283081 339.298706,245.922256 333.874115,251.120804 
	C331.003784,248.669159 331.259979,245.561768 330.782837,242.362869 
z"/>
<path fill="#000000" opacity="1.000000" stroke="none" 
	d="
M203.882263,207.714691 
	C200.339172,210.858917 199.653839,213.421494 204.138107,215.974091 
	C207.877213,218.102539 208.248535,221.383072 206.162033,224.922028 
	C204.501846,227.737885 202.902008,230.705887 198.981552,231.976227 
	C197.598740,227.481689 191.656219,226.862457 190.765503,221.945236 
	C189.839493,216.833282 194.582321,214.198776 196.379944,210.270325 
	C194.545578,206.650467 188.370667,206.197601 189.678452,200.635773 
	C190.733765,196.147659 193.814941,193.313446 197.757965,190.393982 
	C199.829361,196.459015 211.520172,198.137787 203.882263,207.714691 
z"/>
<path fill="#000000" opacity="1.000000" stroke="none" 
	d="
M341.680298,197.747009 
	C341.841614,201.063461 343.793915,199.969772 345.259979,199.522675 
	C348.372955,198.573349 350.707703,196.412979 353.038788,194.250244 
	C354.035492,193.325516 354.507324,191.458878 357.304810,192.265167 
	C355.230408,198.879059 350.687897,203.125687 345.036560,206.365326 
	C343.040863,207.509384 340.744873,208.148758 338.554138,208.929306 
	C334.212158,210.476364 330.346802,212.582764 328.194763,216.965454 
	C327.693604,217.986069 327.039246,219.001068 324.879333,219.126114 
	C326.088104,213.688568 328.773590,209.507584 332.419739,205.901352 
	C338.904663,199.487442 339.382080,194.690552 334.058441,187.077301 
	C333.297974,185.989792 332.290924,185.067368 331.585876,183.950012 
	C330.300262,181.912613 330.394531,181.730331 333.244354,178.029922 
	C340.168488,182.771683 341.823700,189.682388 341.680298,197.747009 
z"/>
<path fill="#000000" opacity="1.000000" stroke="none" 
	d="
M272.262451,270.898682 
	C272.854980,263.088409 278.732635,259.434265 287.050476,261.333923 
	C286.856445,268.169312 279.756104,275.216431 272.366455,275.901855 
	C271.301636,274.273926 274.817505,272.754120 272.262451,270.898682 
z"/>
<path fill="#000000" opacity="1.000000" stroke="none" 
	d="
M233.594513,199.927887 
	C234.255905,198.522751 234.959564,197.419434 235.723297,196.221924 
	C235.868515,194.616089 232.021667,195.533264 233.512909,192.960129 
	C235.071609,190.270569 236.081650,186.719498 239.401443,186.041092 
	C242.356216,185.437302 245.419113,184.296631 248.573364,184.892990 
	C248.796997,191.938126 241.029358,199.799774 233.594513,199.927887 
z"/>
<path fill="#000000" opacity="1.000000" stroke="none" 
	d="
M315.806183,172.558472 
	C314.481476,172.926056 313.449219,173.769791 312.305908,172.825714 
	C315.644287,163.805374 317.562653,162.945145 327.732574,163.674820 
	C327.036041,171.017090 319.973083,177.973175 312.544159,178.533936 
	C312.535614,175.250122 315.893097,174.827377 317.315704,172.818283 
	C317.339111,172.785263 317.154022,172.510483 317.047852,172.497406 
	C316.725983,172.457733 316.395111,172.491318 315.806183,172.558472 
z"/>
<path fill="#000000" opacity="1.000000" stroke="none" 
	d="
M212.838272,243.847839 
	C210.576340,245.601746 210.697250,248.666122 207.650970,250.672485 
	C208.268112,244.464935 209.643860,239.511459 213.995834,235.970047 
	C218.558167,232.257462 224.361145,230.027405 227.399918,224.310120 
	C228.148148,230.737869 224.726089,234.874268 220.403473,238.441101 
	C218.109634,240.333862 215.533295,241.884262 212.838272,243.847839 
z"/>
<path fill="#000000" opacity="1.000000" stroke="none" 
	d="
M356.204346,238.310730 
	C357.086426,236.459808 357.958984,235.547012 359.804413,236.653076 
	C365.083344,239.817062 366.857147,252.186325 361.695923,258.730530 
	C363.299347,250.181107 358.937042,244.684967 356.204346,238.310730 
z"/>
<path fill="#000000" opacity="1.000000" stroke="none" 
	d="
M375.012573,313.003601 
	C373.425934,305.417206 376.239258,298.797882 379.478180,291.641144 
	C382.009308,297.158600 377.577911,301.363617 378.071289,305.879059 
	C379.885742,307.125275 380.406036,304.544556 381.803467,305.050903 
	C382.710449,311.784180 380.214905,315.047546 375.250275,313.122192 
	C374.974457,312.952728 374.998413,312.987915 375.012573,313.003601 
z"/>
<path fill="#000000" opacity="1.000000" stroke="none" 
	d="
M273.127319,186.340164 
	C274.505341,183.732941 274.257996,180.834488 276.495331,178.388840 
	C278.176605,182.479904 276.293762,185.617355 275.343201,188.736679 
	C274.403931,191.818970 273.885345,194.176163 278.150452,193.666580 
	C279.165619,195.313217 278.529541,196.599152 278.059509,197.771790 
	C277.436005,199.327362 276.442200,201.000885 274.577789,200.871887 
	C272.402557,200.721359 271.678406,198.782288 271.546722,196.902939 
	C271.303131,193.426926 271.351837,189.945572 273.127319,186.340164 
z"/>
</svg>